solid ASCII
  facet normal 0.000000e+00 -1.000000e+00 0.000000e+00
    outer loop
      vertex   0.000000e+00 -1.000000e+02 0.000000e+00
      vertex   -1.007303e-13 -1.000000e+02 2.000000e+03
      vertex   -4.714045e+02 -1.000000e+02 1.333333e+03
    endloop
  endfacet
  facet normal 0.000000e+00 -1.000000e+00 0.000000e+00
    outer loop
      vertex   -4.714045e+02 -1.000000e+02 1.333333e+03
      vertex   -1.007303e-13 -1.000000e+02 2.000000e+03
      vertex   -5.956549e+01 -1.000000e+02 1.996439e+03
    endloop
  endfacet
  facet normal 0.000000e+00 -1.000000e+00 0.000000e+00
    outer loop
      vertex   -4.714045e+02 -1.000000e+02 1.333333e+03
      vertex   -5.956549e+01 -1.000000e+02 1.996439e+03
      vertex   -1.182826e+02 -1.000000e+02 1.985808e+03
    endloop
  endfacet
  facet normal 0.000000e+00 -1.000000e+00 0.000000e+00
    outer loop
      vertex   0.000000e+00 -1.000000e+02 0.000000e+00
      vertex   4.714045e+02 -1.000000e+02 1.333333e+03
      vertex   -1.007303e-13 -1.000000e+02 2.000000e+03
    endloop
  endfacet
  facet normal 0.000000e+00 -1.000000e+00 0.000000e+00
    outer loop
      vertex   -1.007303e-13 -1.000000e+02 2.000000e+03
      vertex   4.714045e+02 -1.000000e+02 1.333333e+03
      vertex   5.956549e+01 -1.000000e+02 1.996439e+03
    endloop
  endfacet
  facet normal 0.000000e+00 -1.000000e+00 0.000000e+00
    outer loop
      vertex   5.956549e+01 -1.000000e+02 1.996439e+03
      vertex   4.714045e+02 -1.000000e+02 1.333333e+03
      vertex   1.182826e+02 -1.000000e+02 1.985808e+03
    endloop
  endfacet
  facet normal 0.000000e+00 -1.000000e+00 0.000000e+00
    outer loop
      vertex   1.182826e+02 -1.000000e+02 1.985808e+03
      vertex   4.714045e+02 -1.000000e+02 1.333333e+03
      vertex   1.753150e+02 -1.000000e+02 1.968257e+03
    endloop
  endfacet
  facet normal 0.000000e+00 -1.000000e+00 0.000000e+00
    outer loop
      vertex   1.753150e+02 -1.000000e+02 1.968257e+03
      vertex   4.714045e+02 -1.000000e+02 1.333333e+03
      vertex   2.298504e+02 -1.000000e+02 1.944037e+03
    endloop
  endfacet
  facet normal 0.000000e+00 -1.000000e+00 0.000000e+00
    outer loop
      vertex   2.298504e+02 -1.000000e+02 1.944037e+03
      vertex   4.714045e+02 -1.000000e+02 1.333333e+03
      vertex   2.811121e+02 -1.000000e+02 1.913492e+03
    endloop
  endfacet
  facet normal 0.000000e+00 -1.000000e+00 0.000000e+00
    outer loop
      vertex   2.811121e+02 -1.000000e+02 1.913492e+03
      vertex   4.714045e+02 -1.000000e+02 1.333333e+03
      vertex   3.283699e+02 -1.000000e+02 1.877059e+03
    endloop
  endfacet
  facet normal 0.000000e+00 -1.000000e+00 0.000000e+00
    outer loop
      vertex   3.283699e+02 -1.000000e+02 1.877059e+03
      vertex   4.714045e+02 -1.000000e+02 1.333333e+03
      vertex   3.709508e+02 -1.000000e+02 1.835254e+03
    endloop
  endfacet
  facet normal 0.000000e+00 -1.000000e+00 0.000000e+00
    outer loop
      vertex   3.709508e+02 -1.000000e+02 1.835254e+03
      vertex   4.714045e+02 -1.000000e+02 1.333333e+03
      vertex   4.082483e+02 -1.000000e+02 1.788675e+03
    endloop
  endfacet
  facet normal 0.000000e+00 -1.000000e+00 0.000000e+00
    outer loop
      vertex   4.082483e+02 -1.000000e+02 1.788675e+03
      vertex   4.714045e+02 -1.000000e+02 1.333333e+03
      vertex   4.397311e+02 -1.000000e+02 1.737984e+03
    endloop
  endfacet
  facet normal 0.000000e+00 -1.000000e+00 0.000000e+00
    outer loop
      vertex   4.397311e+02 -1.000000e+02 1.737984e+03
      vertex   4.714045e+02 -1.000000e+02 1.333333e+03
      vertex   4.649509e+02 -1.000000e+02 1.683904e+03
    endloop
  endfacet
  facet normal 0.000000e+00 -1.000000e+00 0.000000e+00
    outer loop
      vertex   4.649509e+02 -1.000000e+02 1.683904e+03
      vertex   4.714045e+02 -1.000000e+02 1.333333e+03
      vertex   4.835484e+02 -1.000000e+02 1.627204e+03
    endloop
  endfacet
  facet normal 0.000000e+00 -1.000000e+00 -0.000000e+00
    outer loop
      vertex   4.835484e+02 -1.000000e+02 1.627204e+03
      vertex   4.714045e+02 -1.000000e+02 1.333333e+03
      vertex   4.879026e+02 -1.000000e+02 1.390679e+03
    endloop
  endfacet
  facet normal 0.000000e+00 -1.000000e+00 0.000000e+00
    outer loop
      vertex   4.835484e+02 -1.000000e+02 1.627204e+03
      vertex   4.879026e+02 -1.000000e+02 1.390679e+03
      vertex   4.952588e+02 -1.000000e+02 1.568693e+03
    endloop
  endfacet
  facet normal 0.000000e+00 -1.000000e+00 -0.000000e+00
    outer loop
      vertex   4.952588e+02 -1.000000e+02 1.568693e+03
      vertex   4.879026e+02 -1.000000e+02 1.390679e+03
      vertex   4.974515e+02 -1.000000e+02 1.449582e+03
    endloop
  endfacet
  facet normal 0.000000e+00 -1.000000e+00 0.000000e+00
    outer loop
      vertex   4.952588e+02 -1.000000e+02 1.568693e+03
      vertex   4.974515e+02 -1.000000e+02 1.449582e+03
      vertex   4.999153e+02 -1.000000e+02 1.509203e+03
    endloop
  endfacet
  facet normal 0.000000e+00 -1.000000e+00 0.000000e+00
    outer loop
      vertex   -1.182826e+02 -1.000000e+02 1.985808e+03
      vertex   -1.753150e+02 -1.000000e+02 1.968257e+03
      vertex   -4.714045e+02 -1.000000e+02 1.333333e+03
    endloop
  endfacet
  facet normal 0.000000e+00 -1.000000e+00 0.000000e+00
    outer loop
      vertex   -4.714045e+02 -1.000000e+02 1.333333e+03
      vertex   -1.753150e+02 -1.000000e+02 1.968257e+03
      vertex   -2.298504e+02 -1.000000e+02 1.944037e+03
    endloop
  endfacet
  facet normal 0.000000e+00 -1.000000e+00 0.000000e+00
    outer loop
      vertex   -4.714045e+02 -1.000000e+02 1.333333e+03
      vertex   -2.298504e+02 -1.000000e+02 1.944037e+03
      vertex   -2.811121e+02 -1.000000e+02 1.913492e+03
    endloop
  endfacet
  facet normal 0.000000e+00 -1.000000e+00 0.000000e+00
    outer loop
      vertex   -2.811121e+02 -1.000000e+02 1.913492e+03
      vertex   -3.283699e+02 -1.000000e+02 1.877059e+03
      vertex   -4.714045e+02 -1.000000e+02 1.333333e+03
    endloop
  endfacet
  facet normal 0.000000e+00 -1.000000e+00 0.000000e+00
    outer loop
      vertex   -4.714045e+02 -1.000000e+02 1.333333e+03
      vertex   -3.283699e+02 -1.000000e+02 1.877059e+03
      vertex   -3.709508e+02 -1.000000e+02 1.835254e+03
    endloop
  endfacet
  facet normal 0.000000e+00 -1.000000e+00 0.000000e+00
    outer loop
      vertex   -4.714045e+02 -1.000000e+02 1.333333e+03
      vertex   -3.709508e+02 -1.000000e+02 1.835254e+03
      vertex   -4.082483e+02 -1.000000e+02 1.788675e+03
    endloop
  endfacet
  facet normal 0.000000e+00 -1.000000e+00 0.000000e+00
    outer loop
      vertex   -4.082483e+02 -1.000000e+02 1.788675e+03
      vertex   -4.397311e+02 -1.000000e+02 1.737984e+03
      vertex   -4.714045e+02 -1.000000e+02 1.333333e+03
    endloop
  endfacet
  facet normal 0.000000e+00 -1.000000e+00 0.000000e+00
    outer loop
      vertex   -4.714045e+02 -1.000000e+02 1.333333e+03
      vertex   -4.397311e+02 -1.000000e+02 1.737984e+03
      vertex   -4.649509e+02 -1.000000e+02 1.683904e+03
    endloop
  endfacet
  facet normal 0.000000e+00 -1.000000e+00 0.000000e+00
    outer loop
      vertex   -4.714045e+02 -1.000000e+02 1.333333e+03
      vertex   -4.649509e+02 -1.000000e+02 1.683904e+03
      vertex   -4.835484e+02 -1.000000e+02 1.627204e+03
    endloop
  endfacet
  facet normal 0.000000e+00 -1.000000e+00 0.000000e+00
    outer loop
      vertex   -4.714045e+02 -1.000000e+02 1.333333e+03
      vertex   -4.835484e+02 -1.000000e+02 1.627204e+03
      vertex   -4.879026e+02 -1.000000e+02 1.390679e+03
    endloop
  endfacet
  facet normal 0.000000e+00 -1.000000e+00 0.000000e+00
    outer loop
      vertex   -4.879026e+02 -1.000000e+02 1.390679e+03
      vertex   -4.835484e+02 -1.000000e+02 1.627204e+03
      vertex   -4.952588e+02 -1.000000e+02 1.568693e+03
    endloop
  endfacet
  facet normal 0.000000e+00 -1.000000e+00 0.000000e+00
    outer loop
      vertex   -4.879026e+02 -1.000000e+02 1.390679e+03
      vertex   -4.952588e+02 -1.000000e+02 1.568693e+03
      vertex   -4.974515e+02 -1.000000e+02 1.449582e+03
    endloop
  endfacet
  facet normal 0.000000e+00 -1.000000e+00 0.000000e+00
    outer loop
      vertex   -4.974515e+02 -1.000000e+02 1.449582e+03
      vertex   -4.952588e+02 -1.000000e+02 1.568693e+03
      vertex   -4.999153e+02 -1.000000e+02 1.509203e+03
    endloop
  endfacet
  facet normal 9.428090e-01 0.000000e+00 -3.333333e-01
    outer loop
      vertex   0.000000e+00 1.000000e+02 0.000000e+00
      vertex   4.714045e+02 1.000000e+02 1.333333e+03
      vertex   0.000000e+00 -1.000000e+02 0.000000e+00
    endloop
  endfacet
  facet normal 9.428090e-01 0.000000e+00 -3.333333e-01
    outer loop
      vertex   0.000000e+00 -1.000000e+02 0.000000e+00
      vertex   4.714045e+02 1.000000e+02 1.333333e+03
      vertex   4.714045e+02 -1.000000e+02 1.333333e+03
    endloop
  endfacet
  facet normal 9.610196e-01 0.000000e+00 -2.764802e-01
    outer loop
      vertex   4.714045e+02 1.000000e+02 1.333333e+03
      vertex   4.879026e+02 1.000000e+02 1.390679e+03
      vertex   4.714045e+02 -1.000000e+02 1.333333e+03
    endloop
  endfacet
  facet normal 9.610196e-01 0.000000e+00 -2.764802e-01
    outer loop
      vertex   4.714045e+02 -1.000000e+02 1.333333e+03
      vertex   4.879026e+02 1.000000e+02 1.390679e+03
      vertex   4.879026e+02 -1.000000e+02 1.390679e+03
    endloop
  endfacet
  facet normal 9.871131e-01 0.000000e+00 -1.600241e-01
    outer loop
      vertex   4.879026e+02 -1.000000e+02 1.390679e+03
      vertex   4.879026e+02 1.000000e+02 1.390679e+03
      vertex   4.974515e+02 1.000000e+02 1.449582e+03
    endloop
  endfacet
  facet normal 9.871131e-01 0.000000e+00 -1.600241e-01
    outer loop
      vertex   4.879026e+02 -1.000000e+02 1.390679e+03
      vertex   4.974515e+02 1.000000e+02 1.449582e+03
      vertex   4.974515e+02 -1.000000e+02 1.449582e+03
    endloop
  endfacet
  facet normal 9.991473e-01 0.000000e+00 -4.128873e-02
    outer loop
      vertex   4.974515e+02 -1.000000e+02 1.449582e+03
      vertex   4.974515e+02 1.000000e+02 1.449582e+03
      vertex   4.999153e+02 1.000000e+02 1.509203e+03
    endloop
  endfacet
  facet normal 9.991473e-01 0.000000e+00 -4.128873e-02
    outer loop
      vertex   4.974515e+02 -1.000000e+02 1.449582e+03
      vertex   4.999153e+02 1.000000e+02 1.509203e+03
      vertex   4.999153e+02 -1.000000e+02 1.509203e+03
    endloop
  endfacet
  facet normal 9.969506e-01 -0.000000e+00 7.803470e-02
    outer loop
      vertex   4.999153e+02 -1.000000e+02 1.509203e+03
      vertex   4.999153e+02 1.000000e+02 1.509203e+03
      vertex   4.952588e+02 1.000000e+02 1.568693e+03
    endloop
  endfacet
  facet normal 9.969506e-01 8.573407e-17 7.803470e-02
    outer loop
      vertex   4.999153e+02 -1.000000e+02 1.509203e+03
      vertex   4.952588e+02 1.000000e+02 1.568693e+03
      vertex   4.952588e+02 -1.000000e+02 1.568693e+03
    endloop
  endfacet
  facet normal 9.805546e-01 2.231066e-16 1.962467e-01
    outer loop
      vertex   4.952588e+02 -1.000000e+02 1.568693e+03
      vertex   4.952588e+02 1.000000e+02 1.568693e+03
      vertex   4.835484e+02 1.000000e+02 1.627204e+03
    endloop
  endfacet
  facet normal 9.805546e-01 0.000000e+00 1.962467e-01
    outer loop
      vertex   4.952588e+02 -1.000000e+02 1.568693e+03
      vertex   4.835484e+02 1.000000e+02 1.627204e+03
      vertex   4.835484e+02 -1.000000e+02 1.627204e+03
    endloop
  endfacet
  facet normal 9.501925e-01 -0.000000e+00 3.116635e-01
    outer loop
      vertex   4.835484e+02 -1.000000e+02 1.627204e+03
      vertex   4.835484e+02 1.000000e+02 1.627204e+03
      vertex   4.649509e+02 1.000000e+02 1.683904e+03
    endloop
  endfacet
  facet normal 9.501925e-01 0.000000e+00 3.116635e-01
    outer loop
      vertex   4.835484e+02 -1.000000e+02 1.627204e+03
      vertex   4.649509e+02 1.000000e+02 1.683904e+03
      vertex   4.649509e+02 -1.000000e+02 1.683904e+03
    endloop
  endfacet
  facet normal 9.062970e-01 -0.000000e+00 4.226414e-01
    outer loop
      vertex   4.649509e+02 -1.000000e+02 1.683904e+03
      vertex   4.649509e+02 1.000000e+02 1.683904e+03
      vertex   4.397311e+02 1.000000e+02 1.737984e+03
    endloop
  endfacet
  facet normal 9.062970e-01 0.000000e+00 4.226414e-01
    outer loop
      vertex   4.649509e+02 -1.000000e+02 1.683904e+03
      vertex   4.397311e+02 1.000000e+02 1.737984e+03
      vertex   4.397311e+02 -1.000000e+02 1.737984e+03
    endloop
  endfacet
  facet normal 8.494932e-01 -0.000000e+00 5.275996e-01
    outer loop
      vertex   4.397311e+02 -1.000000e+02 1.737984e+03
      vertex   4.397311e+02 1.000000e+02 1.737984e+03
      vertex   4.082483e+02 1.000000e+02 1.788675e+03
    endloop
  endfacet
  facet normal 8.494932e-01 0.000000e+00 5.275996e-01
    outer loop
      vertex   4.397311e+02 -1.000000e+02 1.737984e+03
      vertex   4.082483e+02 1.000000e+02 1.788675e+03
      vertex   4.082483e+02 -1.000000e+02 1.788675e+03
    endloop
  endfacet
  facet normal 7.805901e-01 -0.000000e+00 6.250433e-01
    outer loop
      vertex   4.082483e+02 -1.000000e+02 1.788675e+03
      vertex   4.082483e+02 1.000000e+02 1.788675e+03
      vertex   3.709508e+02 1.000000e+02 1.835254e+03
    endloop
  endfacet
  facet normal 7.805901e-01 0.000000e+00 6.250433e-01
    outer loop
      vertex   4.082483e+02 -1.000000e+02 1.788675e+03
      vertex   3.709508e+02 1.000000e+02 1.835254e+03
      vertex   3.709508e+02 -1.000000e+02 1.835254e+03
    endloop
  endfacet
  facet normal 7.005691e-01 -0.000000e+00 7.135845e-01
    outer loop
      vertex   3.709508e+02 -1.000000e+02 1.835254e+03
      vertex   3.709508e+02 1.000000e+02 1.835254e+03
      vertex   3.283699e+02 1.000000e+02 1.877059e+03
    endloop
  endfacet
  facet normal 7.005691e-01 0.000000e+00 7.135845e-01
    outer loop
      vertex   3.709508e+02 -1.000000e+02 1.835254e+03
      vertex   3.283699e+02 1.000000e+02 1.877059e+03
      vertex   3.283699e+02 -1.000000e+02 1.877059e+03
    endloop
  endfacet
  facet normal 6.105700e-01 -0.000000e+00 7.919623e-01
    outer loop
      vertex   3.283699e+02 -1.000000e+02 1.877059e+03
      vertex   3.283699e+02 1.000000e+02 1.877059e+03
      vertex   2.811121e+02 1.000000e+02 1.913492e+03
    endloop
  endfacet
  facet normal 6.105700e-01 0.000000e+00 7.919623e-01
    outer loop
      vertex   3.283699e+02 -1.000000e+02 1.877059e+03
      vertex   2.811121e+02 1.000000e+02 1.913492e+03
      vertex   2.811121e+02 -1.000000e+02 1.913492e+03
    endloop
  endfacet
  facet normal 5.118747e-01 -0.000000e+00 8.590601e-01
    outer loop
      vertex   2.811121e+02 -1.000000e+02 1.913492e+03
      vertex   2.811121e+02 1.000000e+02 1.913492e+03
      vertex   2.298504e+02 1.000000e+02 1.944037e+03
    endloop
  endfacet
  facet normal 5.118747e-01 0.000000e+00 8.590601e-01
    outer loop
      vertex   2.811121e+02 -1.000000e+02 1.913492e+03
      vertex   2.298504e+02 1.000000e+02 1.944037e+03
      vertex   2.298504e+02 -1.000000e+02 1.944037e+03
    endloop
  endfacet
  facet normal 4.058887e-01 -0.000000e+00 9.139225e-01
    outer loop
      vertex   2.298504e+02 -1.000000e+02 1.944037e+03
      vertex   2.298504e+02 1.000000e+02 1.944037e+03
      vertex   1.753150e+02 1.000000e+02 1.968257e+03
    endloop
  endfacet
  facet normal 4.058887e-01 -1.143121e-16 9.139225e-01
    outer loop
      vertex   2.298504e+02 -1.000000e+02 1.944037e+03
      vertex   1.753150e+02 1.000000e+02 1.968257e+03
      vertex   1.753150e+02 -1.000000e+02 1.968257e+03
    endloop
  endfacet
  facet normal 2.941217e-01 -4.178271e-16 9.557680e-01
    outer loop
      vertex   1.753150e+02 -1.000000e+02 1.968257e+03
      vertex   1.753150e+02 1.000000e+02 1.968257e+03
      vertex   1.182826e+02 1.000000e+02 1.985808e+03
    endloop
  endfacet
  facet normal 2.941217e-01 -6.287165e-16 9.557680e-01
    outer loop
      vertex   1.753150e+02 -1.000000e+02 1.968257e+03
      vertex   1.182826e+02 1.000000e+02 1.985808e+03
      vertex   1.182826e+02 -1.000000e+02 1.985808e+03
    endloop
  endfacet
  facet normal 1.781656e-01 -3.797827e-16 9.840005e-01
    outer loop
      vertex   1.182826e+02 -1.000000e+02 1.985808e+03
      vertex   1.182826e+02 1.000000e+02 1.985808e+03
      vertex   5.956549e+01 1.000000e+02 1.996439e+03
    endloop
  endfacet
  facet normal 1.781656e-01 0.000000e+00 9.840005e-01
    outer loop
      vertex   1.182826e+02 -1.000000e+02 1.985808e+03
      vertex   5.956549e+01 1.000000e+02 1.996439e+03
      vertex   5.956549e+01 -1.000000e+02 1.996439e+03
    endloop
  endfacet
  facet normal 5.967182e-02 -0.000000e+00 9.982180e-01
    outer loop
      vertex   5.956549e+01 -1.000000e+02 1.996439e+03
      vertex   5.956549e+01 1.000000e+02 1.996439e+03
      vertex   -1.007303e-13 1.000000e+02 2.000000e+03
    endloop
  endfacet
  facet normal 5.967182e-02 0.000000e+00 9.982180e-01
    outer loop
      vertex   5.956549e+01 -1.000000e+02 1.996439e+03
      vertex   -1.007303e-13 1.000000e+02 2.000000e+03
      vertex   -1.007303e-13 -1.000000e+02 2.000000e+03
    endloop
  endfacet
  facet normal -5.967182e-02 0.000000e+00 9.982180e-01
    outer loop
      vertex   -1.007303e-13 -1.000000e+02 2.000000e+03
      vertex   -1.007303e-13 1.000000e+02 2.000000e+03
      vertex   -5.956549e+01 1.000000e+02 1.996439e+03
    endloop
  endfacet
  facet normal -5.967182e-02 0.000000e+00 9.982180e-01
    outer loop
      vertex   -1.007303e-13 -1.000000e+02 2.000000e+03
      vertex   -5.956549e+01 1.000000e+02 1.996439e+03
      vertex   -5.956549e+01 -1.000000e+02 1.996439e+03
    endloop
  endfacet
  facet normal -1.781656e-01 0.000000e+00 9.840005e-01
    outer loop
      vertex   -5.956549e+01 -1.000000e+02 1.996439e+03
      vertex   -5.956549e+01 1.000000e+02 1.996439e+03
      vertex   -1.182826e+02 1.000000e+02 1.985808e+03
    endloop
  endfacet
  facet normal -1.781656e-01 0.000000e+00 9.840005e-01
    outer loop
      vertex   -5.956549e+01 -1.000000e+02 1.996439e+03
      vertex   -1.182826e+02 1.000000e+02 1.985808e+03
      vertex   -1.182826e+02 -1.000000e+02 1.985808e+03
    endloop
  endfacet
  facet normal -2.941217e-01 0.000000e+00 9.557680e-01
    outer loop
      vertex   -1.182826e+02 -1.000000e+02 1.985808e+03
      vertex   -1.182826e+02 1.000000e+02 1.985808e+03
      vertex   -1.753150e+02 1.000000e+02 1.968257e+03
    endloop
  endfacet
  facet normal -2.941217e-01 0.000000e+00 9.557680e-01
    outer loop
      vertex   -1.182826e+02 -1.000000e+02 1.985808e+03
      vertex   -1.753150e+02 1.000000e+02 1.968257e+03
      vertex   -1.753150e+02 -1.000000e+02 1.968257e+03
    endloop
  endfacet
  facet normal -4.058887e-01 0.000000e+00 9.139225e-01
    outer loop
      vertex   -1.753150e+02 -1.000000e+02 1.968257e+03
      vertex   -1.753150e+02 1.000000e+02 1.968257e+03
      vertex   -2.298504e+02 1.000000e+02 1.944037e+03
    endloop
  endfacet
  facet normal -4.058887e-01 0.000000e+00 9.139225e-01
    outer loop
      vertex   -1.753150e+02 -1.000000e+02 1.968257e+03
      vertex   -2.298504e+02 1.000000e+02 1.944037e+03
      vertex   -2.298504e+02 -1.000000e+02 1.944037e+03
    endloop
  endfacet
  facet normal -5.118747e-01 0.000000e+00 8.590601e-01
    outer loop
      vertex   -2.298504e+02 -1.000000e+02 1.944037e+03
      vertex   -2.298504e+02 1.000000e+02 1.944037e+03
      vertex   -2.811121e+02 1.000000e+02 1.913492e+03
    endloop
  endfacet
  facet normal -5.118747e-01 0.000000e+00 8.590601e-01
    outer loop
      vertex   -2.298504e+02 -1.000000e+02 1.944037e+03
      vertex   -2.811121e+02 1.000000e+02 1.913492e+03
      vertex   -2.811121e+02 -1.000000e+02 1.913492e+03
    endloop
  endfacet
  facet normal -6.105700e-01 0.000000e+00 7.919623e-01
    outer loop
      vertex   -2.811121e+02 -1.000000e+02 1.913492e+03
      vertex   -2.811121e+02 1.000000e+02 1.913492e+03
      vertex   -3.283699e+02 1.000000e+02 1.877059e+03
    endloop
  endfacet
  facet normal -6.105700e-01 0.000000e+00 7.919623e-01
    outer loop
      vertex   -2.811121e+02 -1.000000e+02 1.913492e+03
      vertex   -3.283699e+02 1.000000e+02 1.877059e+03
      vertex   -3.283699e+02 -1.000000e+02 1.877059e+03
    endloop
  endfacet
  facet normal -7.005691e-01 0.000000e+00 7.135845e-01
    outer loop
      vertex   -3.283699e+02 -1.000000e+02 1.877059e+03
      vertex   -3.283699e+02 1.000000e+02 1.877059e+03
      vertex   -3.709508e+02 1.000000e+02 1.835254e+03
    endloop
  endfacet
  facet normal -7.005691e-01 -2.095722e-16 7.135845e-01
    outer loop
      vertex   -3.283699e+02 -1.000000e+02 1.877059e+03
      vertex   -3.709508e+02 1.000000e+02 1.835254e+03
      vertex   -3.709508e+02 -1.000000e+02 1.835254e+03
    endloop
  endfacet
  facet normal -7.805901e-01 -4.502082e-17 6.250433e-01
    outer loop
      vertex   -3.709508e+02 -1.000000e+02 1.835254e+03
      vertex   -3.709508e+02 1.000000e+02 1.835254e+03
      vertex   -4.082483e+02 1.000000e+02 1.788675e+03
    endloop
  endfacet
  facet normal -7.805901e-01 0.000000e+00 6.250433e-01
    outer loop
      vertex   -3.709508e+02 -1.000000e+02 1.835254e+03
      vertex   -4.082483e+02 1.000000e+02 1.788675e+03
      vertex   -4.082483e+02 -1.000000e+02 1.788675e+03
    endloop
  endfacet
  facet normal -8.494932e-01 0.000000e+00 5.275996e-01
    outer loop
      vertex   -4.082483e+02 -1.000000e+02 1.788675e+03
      vertex   -4.082483e+02 1.000000e+02 1.788675e+03
      vertex   -4.397311e+02 1.000000e+02 1.737984e+03
    endloop
  endfacet
  facet normal -8.494932e-01 0.000000e+00 5.275996e-01
    outer loop
      vertex   -4.082483e+02 -1.000000e+02 1.788675e+03
      vertex   -4.397311e+02 1.000000e+02 1.737984e+03
      vertex   -4.397311e+02 -1.000000e+02 1.737984e+03
    endloop
  endfacet
  facet normal -9.062970e-01 0.000000e+00 4.226414e-01
    outer loop
      vertex   -4.397311e+02 -1.000000e+02 1.737984e+03
      vertex   -4.397311e+02 1.000000e+02 1.737984e+03
      vertex   -4.649509e+02 1.000000e+02 1.683904e+03
    endloop
  endfacet
  facet normal -9.062970e-01 0.000000e+00 4.226414e-01
    outer loop
      vertex   -4.397311e+02 -1.000000e+02 1.737984e+03
      vertex   -4.649509e+02 1.000000e+02 1.683904e+03
      vertex   -4.649509e+02 -1.000000e+02 1.683904e+03
    endloop
  endfacet
  facet normal -9.501925e-01 0.000000e+00 3.116635e-01
    outer loop
      vertex   -4.649509e+02 -1.000000e+02 1.683904e+03
      vertex   -4.649509e+02 1.000000e+02 1.683904e+03
      vertex   -4.835484e+02 1.000000e+02 1.627204e+03
    endloop
  endfacet
  facet normal -9.501925e-01 0.000000e+00 3.116635e-01
    outer loop
      vertex   -4.649509e+02 -1.000000e+02 1.683904e+03
      vertex   -4.835484e+02 1.000000e+02 1.627204e+03
      vertex   -4.835484e+02 -1.000000e+02 1.627204e+03
    endloop
  endfacet
  facet normal -9.805546e-01 0.000000e+00 1.962467e-01
    outer loop
      vertex   -4.835484e+02 -1.000000e+02 1.627204e+03
      vertex   -4.835484e+02 1.000000e+02 1.627204e+03
      vertex   -4.952588e+02 1.000000e+02 1.568693e+03
    endloop
  endfacet
  facet normal -9.805546e-01 0.000000e+00 1.962467e-01
    outer loop
      vertex   -4.835484e+02 -1.000000e+02 1.627204e+03
      vertex   -4.952588e+02 1.000000e+02 1.568693e+03
      vertex   -4.952588e+02 -1.000000e+02 1.568693e+03
    endloop
  endfacet
  facet normal -9.969506e-01 0.000000e+00 7.803470e-02
    outer loop
      vertex   -4.952588e+02 -1.000000e+02 1.568693e+03
      vertex   -4.952588e+02 1.000000e+02 1.568693e+03
      vertex   -4.999153e+02 1.000000e+02 1.509203e+03
    endloop
  endfacet
  facet normal -9.969506e-01 0.000000e+00 7.803470e-02
    outer loop
      vertex   -4.952588e+02 -1.000000e+02 1.568693e+03
      vertex   -4.999153e+02 1.000000e+02 1.509203e+03
      vertex   -4.999153e+02 -1.000000e+02 1.509203e+03
    endloop
  endfacet
  facet normal -9.991473e-01 0.000000e+00 -4.128873e-02
    outer loop
      vertex   -4.999153e+02 -1.000000e+02 1.509203e+03
      vertex   -4.999153e+02 1.000000e+02 1.509203e+03
      vertex   -4.974515e+02 1.000000e+02 1.449582e+03
    endloop
  endfacet
  facet normal -9.991473e-01 0.000000e+00 -4.128873e-02
    outer loop
      vertex   -4.999153e+02 -1.000000e+02 1.509203e+03
      vertex   -4.974515e+02 1.000000e+02 1.449582e+03
      vertex   -4.974515e+02 -1.000000e+02 1.449582e+03
    endloop
  endfacet
  facet normal -9.871131e-01 0.000000e+00 -1.600241e-01
    outer loop
      vertex   -4.974515e+02 -1.000000e+02 1.449582e+03
      vertex   -4.974515e+02 1.000000e+02 1.449582e+03
      vertex   -4.879026e+02 1.000000e+02 1.390679e+03
    endloop
  endfacet
  facet normal -9.871131e-01 0.000000e+00 -1.600241e-01
    outer loop
      vertex   -4.974515e+02 -1.000000e+02 1.449582e+03
      vertex   -4.879026e+02 1.000000e+02 1.390679e+03
      vertex   -4.879026e+02 -1.000000e+02 1.390679e+03
    endloop
  endfacet
  facet normal -9.610196e-01 0.000000e+00 -2.764802e-01
    outer loop
      vertex   -4.879026e+02 -1.000000e+02 1.390679e+03
      vertex   -4.879026e+02 1.000000e+02 1.390679e+03
      vertex   -4.714045e+02 1.000000e+02 1.333333e+03
    endloop
  endfacet
  facet normal -9.610196e-01 0.000000e+00 -2.764802e-01
    outer loop
      vertex   -4.879026e+02 -1.000000e+02 1.390679e+03
      vertex   -4.714045e+02 1.000000e+02 1.333333e+03
      vertex   -4.714045e+02 -1.000000e+02 1.333333e+03
    endloop
  endfacet
  facet normal -9.428090e-01 -0.000000e+00 -3.333333e-01
    outer loop
      vertex   -4.714045e+02 1.000000e+02 1.333333e+03
      vertex   0.000000e+00 1.000000e+02 0.000000e+00
      vertex   -4.714045e+02 -1.000000e+02 1.333333e+03
    endloop
  endfacet
  facet normal -9.428090e-01 0.000000e+00 -3.333333e-01
    outer loop
      vertex   -4.714045e+02 -1.000000e+02 1.333333e+03
      vertex   0.000000e+00 1.000000e+02 0.000000e+00
      vertex   0.000000e+00 -1.000000e+02 0.000000e+00
    endloop
  endfacet
  facet normal 0.000000e+00 1.000000e+00 0.000000e+00
    outer loop
      vertex   4.714045e+02 1.000000e+02 1.333333e+03
      vertex   0.000000e+00 1.000000e+02 0.000000e+00
      vertex   -1.007303e-13 1.000000e+02 2.000000e+03
    endloop
  endfacet
  facet normal 0.000000e+00 1.000000e+00 0.000000e+00
    outer loop
      vertex   -1.007303e-13 1.000000e+02 2.000000e+03
      vertex   0.000000e+00 1.000000e+02 0.000000e+00
      vertex   -4.714045e+02 1.000000e+02 1.333333e+03
    endloop
  endfacet
  facet normal 0.000000e+00 1.000000e+00 0.000000e+00
    outer loop
      vertex   -1.007303e-13 1.000000e+02 2.000000e+03
      vertex   -4.714045e+02 1.000000e+02 1.333333e+03
      vertex   -5.956549e+01 1.000000e+02 1.996439e+03
    endloop
  endfacet
  facet normal 0.000000e+00 1.000000e+00 0.000000e+00
    outer loop
      vertex   -5.956549e+01 1.000000e+02 1.996439e+03
      vertex   -4.714045e+02 1.000000e+02 1.333333e+03
      vertex   -1.182826e+02 1.000000e+02 1.985808e+03
    endloop
  endfacet
  facet normal 0.000000e+00 1.000000e+00 0.000000e+00
    outer loop
      vertex   -1.182826e+02 1.000000e+02 1.985808e+03
      vertex   -4.714045e+02 1.000000e+02 1.333333e+03
      vertex   -1.753150e+02 1.000000e+02 1.968257e+03
    endloop
  endfacet
  facet normal 0.000000e+00 1.000000e+00 0.000000e+00
    outer loop
      vertex   -1.753150e+02 1.000000e+02 1.968257e+03
      vertex   -4.714045e+02 1.000000e+02 1.333333e+03
      vertex   -2.298504e+02 1.000000e+02 1.944037e+03
    endloop
  endfacet
  facet normal 0.000000e+00 1.000000e+00 0.000000e+00
    outer loop
      vertex   -2.298504e+02 1.000000e+02 1.944037e+03
      vertex   -4.714045e+02 1.000000e+02 1.333333e+03
      vertex   -2.811121e+02 1.000000e+02 1.913492e+03
    endloop
  endfacet
  facet normal 0.000000e+00 1.000000e+00 0.000000e+00
    outer loop
      vertex   -2.811121e+02 1.000000e+02 1.913492e+03
      vertex   -4.714045e+02 1.000000e+02 1.333333e+03
      vertex   -3.283699e+02 1.000000e+02 1.877059e+03
    endloop
  endfacet
  facet normal 0.000000e+00 1.000000e+00 0.000000e+00
    outer loop
      vertex   -3.283699e+02 1.000000e+02 1.877059e+03
      vertex   -4.714045e+02 1.000000e+02 1.333333e+03
      vertex   -3.709508e+02 1.000000e+02 1.835254e+03
    endloop
  endfacet
  facet normal 0.000000e+00 1.000000e+00 0.000000e+00
    outer loop
      vertex   -3.709508e+02 1.000000e+02 1.835254e+03
      vertex   -4.714045e+02 1.000000e+02 1.333333e+03
      vertex   -4.082483e+02 1.000000e+02 1.788675e+03
    endloop
  endfacet
  facet normal 0.000000e+00 1.000000e+00 0.000000e+00
    outer loop
      vertex   -4.082483e+02 1.000000e+02 1.788675e+03
      vertex   -4.714045e+02 1.000000e+02 1.333333e+03
      vertex   -4.397311e+02 1.000000e+02 1.737984e+03
    endloop
  endfacet
  facet normal 0.000000e+00 1.000000e+00 0.000000e+00
    outer loop
      vertex   -4.397311e+02 1.000000e+02 1.737984e+03
      vertex   -4.714045e+02 1.000000e+02 1.333333e+03
      vertex   -4.649509e+02 1.000000e+02 1.683904e+03
    endloop
  endfacet
  facet normal 0.000000e+00 1.000000e+00 0.000000e+00
    outer loop
      vertex   -4.649509e+02 1.000000e+02 1.683904e+03
      vertex   -4.714045e+02 1.000000e+02 1.333333e+03
      vertex   -4.835484e+02 1.000000e+02 1.627204e+03
    endloop
  endfacet
  facet normal 0.000000e+00 1.000000e+00 0.000000e+00
    outer loop
      vertex   -4.835484e+02 1.000000e+02 1.627204e+03
      vertex   -4.714045e+02 1.000000e+02 1.333333e+03
      vertex   -4.879026e+02 1.000000e+02 1.390679e+03
    endloop
  endfacet
  facet normal 0.000000e+00 1.000000e+00 0.000000e+00
    outer loop
      vertex   -4.835484e+02 1.000000e+02 1.627204e+03
      vertex   -4.879026e+02 1.000000e+02 1.390679e+03
      vertex   -4.952588e+02 1.000000e+02 1.568693e+03
    endloop
  endfacet
  facet normal 0.000000e+00 1.000000e+00 0.000000e+00
    outer loop
      vertex   -4.952588e+02 1.000000e+02 1.568693e+03
      vertex   -4.879026e+02 1.000000e+02 1.390679e+03
      vertex   -4.974515e+02 1.000000e+02 1.449582e+03
    endloop
  endfacet
  facet normal 0.000000e+00 1.000000e+00 0.000000e+00
    outer loop
      vertex   -4.952588e+02 1.000000e+02 1.568693e+03
      vertex   -4.974515e+02 1.000000e+02 1.449582e+03
      vertex   -4.999153e+02 1.000000e+02 1.509203e+03
    endloop
  endfacet
  facet normal 0.000000e+00 1.000000e+00 0.000000e+00
    outer loop
      vertex   -1.007303e-13 1.000000e+02 2.000000e+03
      vertex   5.956549e+01 1.000000e+02 1.996439e+03
      vertex   4.714045e+02 1.000000e+02 1.333333e+03
    endloop
  endfacet
  facet normal 0.000000e+00 1.000000e+00 0.000000e+00
    outer loop
      vertex   4.714045e+02 1.000000e+02 1.333333e+03
      vertex   5.956549e+01 1.000000e+02 1.996439e+03
      vertex   1.182826e+02 1.000000e+02 1.985808e+03
    endloop
  endfacet
  facet normal 0.000000e+00 1.000000e+00 0.000000e+00
    outer loop
      vertex   4.714045e+02 1.000000e+02 1.333333e+03
      vertex   1.182826e+02 1.000000e+02 1.985808e+03
      vertex   1.753150e+02 1.000000e+02 1.968257e+03
    endloop
  endfacet
  facet normal 0.000000e+00 1.000000e+00 0.000000e+00
    outer loop
      vertex   1.753150e+02 1.000000e+02 1.968257e+03
      vertex   2.298504e+02 1.000000e+02 1.944037e+03
      vertex   4.714045e+02 1.000000e+02 1.333333e+03
    endloop
  endfacet
  facet normal 0.000000e+00 1.000000e+00 0.000000e+00
    outer loop
      vertex   4.714045e+02 1.000000e+02 1.333333e+03
      vertex   2.298504e+02 1.000000e+02 1.944037e+03
      vertex   2.811121e+02 1.000000e+02 1.913492e+03
    endloop
  endfacet
  facet normal 0.000000e+00 1.000000e+00 0.000000e+00
    outer loop
      vertex   4.714045e+02 1.000000e+02 1.333333e+03
      vertex   2.811121e+02 1.000000e+02 1.913492e+03
      vertex   3.283699e+02 1.000000e+02 1.877059e+03
    endloop
  endfacet
  facet normal 0.000000e+00 1.000000e+00 0.000000e+00
    outer loop
      vertex   3.283699e+02 1.000000e+02 1.877059e+03
      vertex   3.709508e+02 1.000000e+02 1.835254e+03
      vertex   4.714045e+02 1.000000e+02 1.333333e+03
    endloop
  endfacet
  facet normal 0.000000e+00 1.000000e+00 0.000000e+00
    outer loop
      vertex   4.714045e+02 1.000000e+02 1.333333e+03
      vertex   3.709508e+02 1.000000e+02 1.835254e+03
      vertex   4.082483e+02 1.000000e+02 1.788675e+03
    endloop
  endfacet
  facet normal 0.000000e+00 1.000000e+00 0.000000e+00
    outer loop
      vertex   4.714045e+02 1.000000e+02 1.333333e+03
      vertex   4.082483e+02 1.000000e+02 1.788675e+03
      vertex   4.397311e+02 1.000000e+02 1.737984e+03
    endloop
  endfacet
  facet normal 0.000000e+00 1.000000e+00 0.000000e+00
    outer loop
      vertex   4.397311e+02 1.000000e+02 1.737984e+03
      vertex   4.649509e+02 1.000000e+02 1.683904e+03
      vertex   4.714045e+02 1.000000e+02 1.333333e+03
    endloop
  endfacet
  facet normal 0.000000e+00 1.000000e+00 -0.000000e+00
    outer loop
      vertex   4.714045e+02 1.000000e+02 1.333333e+03
      vertex   4.649509e+02 1.000000e+02 1.683904e+03
      vertex   4.835484e+02 1.000000e+02 1.627204e+03
    endloop
  endfacet
  facet normal 0.000000e+00 1.000000e+00 0.000000e+00
    outer loop
      vertex   4.714045e+02 1.000000e+02 1.333333e+03
      vertex   4.835484e+02 1.000000e+02 1.627204e+03
      vertex   4.879026e+02 1.000000e+02 1.390679e+03
    endloop
  endfacet
  facet normal 0.000000e+00 1.000000e+00 -0.000000e+00
    outer loop
      vertex   4.879026e+02 1.000000e+02 1.390679e+03
      vertex   4.835484e+02 1.000000e+02 1.627204e+03
      vertex   4.952588e+02 1.000000e+02 1.568693e+03
    endloop
  endfacet
  facet normal 0.000000e+00 1.000000e+00 0.000000e+00
    outer loop
      vertex   4.879026e+02 1.000000e+02 1.390679e+03
      vertex   4.952588e+02 1.000000e+02 1.568693e+03
      vertex   4.974515e+02 1.000000e+02 1.449582e+03
    endloop
  endfacet
  facet normal 0.000000e+00 1.000000e+00 -0.000000e+00
    outer loop
      vertex   4.974515e+02 1.000000e+02 1.449582e+03
      vertex   4.952588e+02 1.000000e+02 1.568693e+03
      vertex   4.999153e+02 1.000000e+02 1.509203e+03
    endloop
  endfacet
endsolid
